<svg xmlns="http://www.w3.org/2000/svg" viewBox="0 0 200 190"><defs><radialGradient id="red" cx=".3" cy=".25" r=".8"><stop stop-color="#ffb8a1"/><stop offset=".3" stop-color="#ff534c"/><stop offset=".72" stop-color="#cf092d"/><stop offset="1" stop-color="#760c2c"/></radialGradient><linearGradient id="green" x2="1" y2="1"><stop stop-color="#b3ee66"/><stop offset=".5" stop-color="#51a638"/><stop offset="1" stop-color="#18502c"/></linearGradient><linearGradient id="white" x2="1" y2=".4"><stop stop-color="#fff"/><stop offset=".45" stop-color="#f1f7ff"/><stop offset="1" stop-color="#a0bad5"/></linearGradient><linearGradient id="blue" x2="1" y2="1"><stop stop-color="#8bd4ff"/><stop offset=".5" stop-color="#318dce"/><stop offset="1" stop-color="#0b3d82"/></linearGradient><linearGradient id="orange" x2="1" y2=".5"><stop stop-color="#ffe7a1"/><stop offset=".25" stop-color="#ffb534"/><stop offset=".7" stop-color="#f06a14"/><stop offset="1" stop-color="#a6380b"/></linearGradient><radialGradient id="silver" cx=".4" cy=".3"><stop stop-color="#edffff"/><stop offset=".45" stop-color="#97dbe1"/><stop offset=".8" stop-color="#449aac"/><stop offset="1" stop-color="#24596f"/></radialGradient><filter id="shadow" x="-50%" y="-50%" width="200%" height="200%"><feGaussianBlur stdDeviation="5"/></filter></defs><ellipse cx="100" cy="165" rx="52" ry="10" fill="#412317" opacity=".19" filter="url(#shadow)"/><path d="M100 55C75 30 35 49 36 87c1 40 27 75 48 70 13-4 20-4 34 0 25 4 51-36 47-75-3-35-42-45-65-27Z" fill="url(#red)"/><path d="M99 58c-4-17 2-28 10-33" stroke="#704024" stroke-width="8" fill="none" stroke-linecap="round"/><path d="M107 42c11-25 35-30 48-21-7 23-25 34-48 21" fill="url(#green)"/><path d="M113 38l32-12" stroke="#d0ff93" opacity=".65" fill="none"/><ellipse cx="65" cy="76" rx="12" ry="21" transform="rotate(30 65 76)" fill="#fff" opacity=".38"/><path d="M140 100c-4 23-14 39-24 41" stroke="#ff9482" stroke-width="4" opacity=".4" fill="none"/></svg>