<svg xmlns="http://www.w3.org/2000/svg" viewBox="0 0 200 190"><defs><radialGradient id="red" cx=".3" cy=".25" r=".8"><stop stop-color="#ffb8a1"/><stop offset=".3" stop-color="#ff534c"/><stop offset=".72" stop-color="#cf092d"/><stop offset="1" stop-color="#760c2c"/></radialGradient><linearGradient id="green" x2="1" y2="1"><stop stop-color="#b3ee66"/><stop offset=".5" stop-color="#51a638"/><stop offset="1" stop-color="#18502c"/></linearGradient><linearGradient id="white" x2="1" y2=".4"><stop stop-color="#fff"/><stop offset=".45" stop-color="#f1f7ff"/><stop offset="1" stop-color="#a0bad5"/></linearGradient><linearGradient id="blue" x2="1" y2="1"><stop stop-color="#8bd4ff"/><stop offset=".5" stop-color="#318dce"/><stop offset="1" stop-color="#0b3d82"/></linearGradient><linearGradient id="orange" x2="1" y2=".5"><stop stop-color="#ffe7a1"/><stop offset=".25" stop-color="#ffb534"/><stop offset=".7" stop-color="#f06a14"/><stop offset="1" stop-color="#a6380b"/></linearGradient><radialGradient id="silver" cx=".4" cy=".3"><stop stop-color="#edffff"/><stop offset=".45" stop-color="#97dbe1"/><stop offset=".8" stop-color="#449aac"/><stop offset="1" stop-color="#24596f"/></radialGradient><filter id="shadow" x="-50%" y="-50%" width="200%" height="200%"><feGaussianBlur stdDeviation="5"/></filter></defs><ellipse cx="100" cy="154" rx="69" ry="10" fill="#224457" opacity=".2" filter="url(#shadow)"/><path d="M57 100 17 65c-4 24-2 54 1 72Z" fill="url(#blue)"/><path d="M78 72c6-24 34-34 42-22l8 24m-44 53c8 23 35 22 39 8" fill="url(#blue)"/><path d="M42 101c24-51 99-57 136-3-29 54-106 56-136 3Z" fill="url(#silver)"/><path d="M52 94c36-24 76-24 109 1" fill="none" stroke="#e3ffff" stroke-width="7" opacity=".65"/><path d="M126 76c-14 19-15 38-2 55" fill="none" stroke="#28647c" stroke-width="4" opacity=".6"/><path d="M89 94l-8 29 28-10Z" fill="url(#blue)"/><circle cx="146" cy="94" r="9" fill="#f7ffff"/><circle cx="148" cy="94" r="5" fill="#123046"/><circle cx="150" cy="92" r="2" fill="white"/><path d="M168 112l-8-3" stroke="#174254" stroke-width="3" stroke-linecap="round"/></svg>